<svg xmlns="http://www.w3.org/2000/svg" fill="none" viewBox="0 0 126 26">
  <path d="M25.796 16.131c-1.75 6.939-8.831 11.18-15.878 9.445C2.92 23.84-1.359 16.82.392 9.835 2.142 2.896 9.223-1.345 16.27.39c6.999 1.734 11.277 8.754 9.526 15.74z" fill="#A9A9A9"/>
  <path d="M18.862 11.121c.26-1.734-1.07-2.668-2.883-3.276l.583-2.346-1.426-.353-.583 2.279-1.166-.257.583-2.28-1.426-.352-.583 2.346-.907-.226-1.962-.482-.388 1.51 1.037.257a.773.773 0 01.513.279.76.76 0 01.167.556l-.68 2.668c.032 0 .098.032.163.032-.033 0-.099-.032-.163-.032l-.94 3.727c-.064.161-.259.45-.647.353 0 .032-1.037-.257-1.037-.257l-.701 1.64 1.878.45 1.038.257-.583 2.362 1.425.353.583-2.345 1.122.289-.583 2.346 1.425.352.583-2.362c2.463.45 4.275.29 5.055-1.928.617-1.764-.032-2.779-1.329-3.47.973-.194 1.654-.803 1.848-2.088l-.016-.002zm-3.273 4.595c-.454 1.765-3.434.803-4.407.578l.778-3.148c.973.225 4.083.695 3.644 2.571l-.015-.001zm.454-4.595c-.388 1.607-2.915.804-3.726.579l.701-2.859c.81.225 3.434.578 3.014 2.28h.011z" fill="#F8F8FC"/>
  <path d="M38.369 7.842c1.07 0 1.962.194 2.754.546.778.385 1.426.867 1.912 1.51.519.641.875 1.38 1.122 2.248.238.901.357 1.83.356 2.762a11.05 11.05 0 01-.843 4.274 10.817 10.817 0 01-2.3 3.502 11.028 11.028 0 01-3.434 2.362 10.67 10.67 0 01-4.31.867h-1.038c-.486 0-1.07-.064-1.717-.161l-2.041-.385c-.7-.161-1.393-.417-2.04-.695L32.524.803 37.645 0l-2.042 8.481c.454-.194.875-.353 1.33-.45a5.116 5.116 0 011.425-.195l.01.006zm-4.31 14.072a4.66 4.66 0 002.174-.547 6.098 6.098 0 001.781-1.509 7.467 7.467 0 001.166-2.12 7.09 7.09 0 00.421-2.474c0-1.06-.163-1.862-.519-2.473-.356-.579-1.005-.9-1.944-.9-.322 0-.7.064-1.198.162-.498.097-.94.352-1.33.694l-2.172 8.996c.13.032.26.032.356.064.097.032.196.032.323.064.098 0 .259.032.388.032h.55l.005.01zm15.813 3.613h-4.907L49.102 8.23h4.925l-4.154 17.296zm2.366-19.403a2.975 2.975 0 01-1.848-.611c-.55-.417-.84-1.029-.84-1.862 0-.45.097-.9.29-1.286.181-.396.434-.755.746-1.06a4.756 4.756 0 011.07-.709c.42-.161.841-.257 1.297-.257A2.975 2.975 0 0154.8.951c.551.416.841 1.028.841 1.862 0 .45-.098.899-.291 1.285a3.51 3.51 0 01-.746 1.06c-.292.29-.68.515-1.07.695-.39.18-.81.257-1.296.257v.014zm6.092-2.187l5.153-.803-1.265 5.108h5.51l-1.006 4.03h-5.477l-1.457 6.04a7.907 7.907 0 00-.227 1.413c-.031.449.032.803.162 1.112a1.32 1.32 0 00.714.739c.356.161.84.257 1.457.257.52 0 1.038-.064 1.542-.161a8.633 8.633 0 001.49-.419l.356 3.76c-.7.245-1.414.449-2.139.61-.778.194-1.684.257-2.754.257-1.522 0-2.691-.225-3.533-.674-.84-.45-1.425-1.06-1.78-1.832-.354-.771-.518-1.67-.454-2.668.032-.996.196-2.057.454-3.196L58.33 3.937zm9.17 14.682c.002-1.432.243-2.854.713-4.208a10.514 10.514 0 012.074-3.437c.907-.996 2.008-1.765 3.305-2.346 1.297-.58 2.722-.867 4.31-.867 1.005 0 1.879.098 2.658.29.78.191 1.49.416 2.14.739l-1.686 3.821c-.454-.194-.907-.32-1.36-.482-.486-.161-1.069-.225-1.749-.225-1.654 0-2.915.546-3.888 1.67-.973 1.124-1.458 2.602-1.458 4.497 0 1.112.26 2.023.746 2.699.486.695 1.393 1.028 2.691 1.028a8.567 8.567 0 001.848-.193 9.546 9.546 0 001.588-.482l.356 3.919-2.041.642c-.746.194-1.654.289-2.692.289-1.36 0-2.527-.195-3.466-.578a6.815 6.815 0 01-2.366-1.607 5.81 5.81 0 01-1.33-2.346 10.107 10.107 0 01-.387-2.826l-.006.003zm21.775 7.344c-1.166 0-2.204-.195-3.046-.514-.875-.353-1.588-.834-2.14-1.477a6.667 6.667 0 01-1.264-2.249c-.291-.867-.42-1.831-.42-2.858 0-1.318.227-2.635.647-3.951a10.685 10.685 0 011.912-3.534 9.85 9.85 0 013.079-2.57c1.198-.675 2.593-.997 4.18-.997a8.97 8.97 0 013.046.514c.874.353 1.588.834 2.139 1.477a6.67 6.67 0 011.264 2.248c.292.868.42 1.832.42 2.86 0 1.316-.196 2.634-.616 3.95-.42 1.316-1.037 2.505-1.848 3.534-.81 1.06-1.847 1.895-3.078 2.57-1.23.676-2.658.997-4.275.997zm2.463-14.07a3.3 3.3 0 00-1.912.61 5.468 5.468 0 00-1.394 1.574c-.388.644-.647 1.318-.84 2.089-.194.771-.292 1.477-.292 2.154 0 1.092.196 1.945.518 2.57.356.612 1.005.932 1.912.932.746 0 1.36-.195 1.912-.612a5.448 5.448 0 001.394-1.574c.388-.643.647-1.317.84-2.089.19-.703.288-1.426.292-2.154 0-1.092-.162-1.945-.518-2.57-.357-.626-1.006-.932-1.912-.932v.002zm12.704 13.618h-4.906l4.149-17.283h4.925l-4.168 17.283zm2.366-19.402a2.977 2.977 0 01-1.848-.611c-.551-.417-.841-1.029-.841-1.863 0-.45.098-.899.292-1.285.18-.396.433-.756.746-1.06a4.747 4.747 0 011.069-.71 3.564 3.564 0 011.297-.256 2.974 2.974 0 011.847.611c.551.417.841 1.029.841 1.862 0 .45-.098.9-.291 1.286a3.538 3.538 0 01-.746 1.06 4.754 4.754 0 01-1.07.709c-.389.194-.81.257-1.296.257zm5.343 2.89l1.231-.384 1.522-.385a14.57 14.57 0 011.88-.29l2.366-.127c2.593 0 4.374.739 5.346 2.248.973 1.477 1.167 3.534.519 6.104l-2.268 9.316h-4.926l2.173-9.123.322-1.67c.065-.547.065-.997-.032-1.414a1.69 1.69 0 00-.617-.996c-.325-.257-.81-.385-1.49-.385-.647 0-1.296.064-1.944.194l-3.224 13.365h-4.926l4.068-16.453z" fill="#A9A9A9"/>
</svg>
