<svg xmlns="http://www.w3.org/2000/svg" fill="none" viewBox="0 0 14 14">
  <g clip-path="url(#Zoq7FCee34a)">
    <path d="M7 1.262c1.87 0 2.09.008 2.829.041.683.03 1.053.145 1.3.242.328.128.562.278.806.522.245.245.398.478.523.806.094.248.21.617.242 1.3.033.74.041.96.041 2.83s-.008 2.09-.041 2.829c-.031.683-.145 1.053-.242 1.3a2.173 2.173 0 01-.523.806 2.14 2.14 0 01-.806.522c-.247.095-.617.212-1.3.242-.74.034-.959.042-2.829.042s-2.09-.008-2.829-.042c-.684-.03-1.053-.144-1.3-.242a2.173 2.173 0 01-.806-.522 2.14 2.14 0 01-.523-.806c-.094-.247-.21-.617-.241-1.3-.034-.74-.042-.959-.042-2.83 0-1.87.008-2.089.042-2.828.03-.684.144-1.053.241-1.3a2.17 2.17 0 01.523-.807 2.14 2.14 0 01.806-.522c.247-.094.616-.211 1.3-.242.74-.036.962-.041 2.829-.041zM7 0C5.1 0 4.86.008 4.113.042c-.745.033-1.254.153-1.698.325-.461.178-.85.42-1.24.808-.389.39-.628.781-.808 1.24-.172.444-.292.953-.325 1.7C.008 4.86 0 5.1 0 7s.008 2.14.042 2.887c.033.745.153 1.253.325 1.7.178.462.42.851.808 1.24.39.39.781.628 1.24.809.444.172.953.292 1.7.325.748.033.984.042 2.888.042 1.903 0 2.14-.009 2.887-.042.745-.033 1.253-.153 1.7-.325.462-.178.851-.42 1.24-.809.39-.389.628-.78.809-1.24.172-.444.292-.952.325-1.7.033-.747.042-.983.042-2.887s-.009-2.14-.042-2.887c-.034-.745-.153-1.254-.325-1.7a3.413 3.413 0 00-.809-1.24 3.472 3.472 0 00-1.24-.809c-.444-.172-.952-.292-1.7-.325C9.14.009 8.9 0 7 0z" fill="#fff"/>
    <path d="M7 1.262c1.87 0 2.09.008 2.829.041.683.03 1.053.145 1.3.242.328.128.562.278.806.522.245.245.398.478.523.806.094.248.21.617.242 1.3.033.74.041.96.041 2.83s-.008 2.09-.041 2.829c-.031.683-.145 1.053-.242 1.3a2.173 2.173 0 01-.523.806 2.14 2.14 0 01-.806.522c-.247.095-.617.212-1.3.242-.74.034-.959.042-2.829.042s-2.09-.008-2.829-.042c-.684-.03-1.053-.144-1.3-.242a2.173 2.173 0 01-.806-.522 2.14 2.14 0 01-.523-.806c-.094-.247-.21-.617-.241-1.3-.034-.74-.042-.959-.042-2.83 0-1.87.008-2.089.042-2.828.03-.684.144-1.053.241-1.3a2.17 2.17 0 01.523-.807 2.14 2.14 0 01.806-.522c.247-.094.616-.211 1.3-.242.74-.036.962-.041 2.829-.041z" fill="#fff"/>
    <path d="M7 3.407a3.596 3.596 0 10.001 7.193A3.596 3.596 0 007 3.407zm0 5.927a2.334 2.334 0 110-4.668 2.334 2.334 0 010 4.668zm3.738-5.232a.84.84 0 100-1.679.84.84 0 000 1.679z" fill="#626262"/>
  </g>
  <defs>
    <clipPath id="Zoq7FCee34a">
      <path fill="#fff" d="M0 0h14v14H0z"/>
    </clipPath>
  </defs>
</svg>
