<svg xmlns="http://www.w3.org/2000/svg" fill="none" viewBox="0 0 273 567">
  <path d="M60.581.421H212.27c10.61 0 18.542 0 24.835.514 6.288.514 10.902 1.539 14.882 3.567a37.445 37.445 0 0116.363 16.363c2.028 3.98 3.053 8.594 3.566 14.882.515 6.293.515 14.225.515 24.834V505.81c0 10.609 0 18.541-.515 24.834-.513 6.288-1.538 10.902-3.566 14.882a37.448 37.448 0 01-16.363 16.363c-3.98 2.028-8.594 3.053-14.882 3.567-6.293.514-14.225.514-24.835.514H60.581c-10.61 0-18.541 0-24.834-.514-6.288-.514-10.902-1.539-14.882-3.567a37.445 37.445 0 01-16.363-16.363c-2.028-3.98-3.053-8.594-3.567-14.882-.514-6.293-.514-14.225-.514-24.834V60.581c0-10.61 0-18.541.514-24.834.514-6.288 1.539-10.902 3.567-14.882A37.443 37.443 0 0120.865 4.502c3.98-2.028 8.594-3.053 14.882-3.567C42.04.421 49.972.421 60.581.421z" fill="#2C3131" stroke="url(#vL0xZpMtIqa)" stroke-width=".842"/>
  <defs>
    <linearGradient id="vL0xZpMtIqa" x1="17.439" y1="7.239" x2="251.575" y2="552.114" gradientUnits="userSpaceOnUse">
      <stop stop-color="#fff" stop-opacity=".16"/>
      <stop offset="1" stop-color="#fff" stop-opacity=".05"/>
    </linearGradient>
  </defs>
</svg>
