<svg xmlns="http://www.w3.org/2000/svg" fill="none" viewBox="0 0 273 567">
  <path d="M60.581.238H212.27c10.606 0 18.547 0 24.849.515 6.299.515 10.94 1.542 14.95 3.586a37.622 37.622 0 0116.443 16.443c2.044 4.01 3.071 8.651 3.586 14.95.515 6.302.515 14.243.515 24.85v445.227c0 10.606 0 18.547-.515 24.849-.515 6.299-1.542 10.94-3.586 14.951a37.63 37.63 0 01-16.443 16.443c-4.01 2.043-8.651 3.071-14.95 3.585-6.302.515-14.243.515-24.849.515H60.581c-10.606 0-18.547 0-24.849-.515-6.299-.514-10.94-1.542-14.95-3.585a37.633 37.633 0 01-16.443-16.443c-2.044-4.011-3.071-8.652-3.586-14.951-.515-6.302-.515-14.243-.515-24.849V60.581c0-10.606 0-18.547.515-24.849.515-6.299 1.542-10.94 3.586-14.95A37.625 37.625 0 0120.782 4.339c4.01-2.044 8.651-3.071 14.95-3.586C42.034.238 49.975.238 60.582.238z" fill="#2C3131" stroke="url(#2VZubdN-usa)" stroke-width=".476"/>
  <defs>
    <linearGradient id="2VZubdN-usa" x1="17.439" y1="7.239" x2="251.575" y2="552.114" gradientUnits="userSpaceOnUse">
      <stop stop-color="#fff" stop-opacity=".16"/>
      <stop offset="1" stop-color="#fff" stop-opacity=".05"/>
    </linearGradient>
  </defs>
</svg>
