<svg xmlns="http://www.w3.org/2000/svg" fill="none" viewBox="0 0 280 573">
  <g filter="url(#oeRTgAp3GWa)">
    <path d="M0 64.953C0 42.218 0 30.85 4.425 22.166a40.596 40.596 0 0117.74-17.741C30.85 0 42.219 0 64.954 0h149.19c22.736 0 34.104 0 42.788 4.425a40.599 40.599 0 0117.741 17.74c4.425 8.685 4.425 20.053 4.425 42.788v442.729c0 22.736 0 34.104-4.425 42.788a40.596 40.596 0 01-17.741 17.741c-8.684 4.425-20.052 4.425-42.788 4.425H64.953c-22.735 0-34.103 0-42.787-4.425A40.593 40.593 0 014.425 550.47C0 541.786 0 530.418 0 507.682V64.953z" fill="#050505"/>
  </g>
  <path d="M64.953.951h149.19c11.384 0 19.864 0 26.586.55 6.711.548 11.584 1.639 15.77 3.771a39.643 39.643 0 0117.325 17.326c2.133 4.185 3.223 9.059 3.771 15.77.55 6.721.55 15.202.55 26.585v442.729c0 11.384 0 19.865-.55 26.586-.548 6.711-1.638 11.585-3.771 15.77a39.643 39.643 0 01-17.325 17.326c-4.186 2.132-9.059 3.222-15.77 3.771-6.722.549-15.202.55-26.586.55H64.953c-11.383 0-19.864-.001-26.585-.55-6.711-.549-11.585-1.639-15.77-3.771a39.645 39.645 0 01-17.326-17.326c-2.132-4.185-3.223-9.059-3.77-15.77-.55-6.721-.55-15.202-.55-26.586V64.953c0-11.383 0-19.864.55-26.585.547-6.711 1.638-11.585 3.77-15.77A39.645 39.645 0 0122.598 5.271c4.185-2.132 9.059-3.223 15.77-3.77 6.721-.55 15.202-.55 26.585-.55z" stroke="url(#oeRTgAp3GWb)" stroke-width="1.902"/>
  <defs>
    <linearGradient id="oeRTgAp3GWb" x1="139.548" y1="0" x2="139.548" y2="572.636" gradientUnits="userSpaceOnUse">
      <stop stop-color="#fff" stop-opacity=".64"/>
      <stop offset="1" stop-color="#fff" stop-opacity=".32"/>
    </linearGradient>
    <filter id="oeRTgAp3GWa" x="0" y="0" width="279.097" height="572.636" filterUnits="userSpaceOnUse" color-interpolation-filters="sRGB">
      <feFlood flood-opacity="0" result="BackgroundImageFix"/>
      <feBlend in="SourceGraphic" in2="BackgroundImageFix" result="shape"/>
      <feColorMatrix in="SourceAlpha" values="0 0 0 0 0 0 0 0 0 0 0 0 0 0 0 0 0 0 127 0" result="hardAlpha"/>
      <feOffset/>
      <feGaussianBlur stdDeviation="4.756"/>
      <feComposite in2="hardAlpha" operator="arithmetic" k2="-1" k3="1"/>
      <feColorMatrix values="0 0 0 0 1 0 0 0 0 1 0 0 0 0 1 0 0 0 0.88 0"/>
      <feBlend in2="shape" result="effect1_innerShadow_110_1870"/>
      <feColorMatrix in="SourceAlpha" values="0 0 0 0 0 0 0 0 0 0 0 0 0 0 0 0 0 0 127 0" result="hardAlpha"/>
      <feOffset/>
      <feGaussianBlur stdDeviation="2.378"/>
      <feComposite in2="hardAlpha" operator="arithmetic" k2="-1" k3="1"/>
      <feColorMatrix values="0 0 0 0 0 0 0 0 0 0 0 0 0 0 0 0 0 0 1 0"/>
      <feBlend in2="effect1_innerShadow_110_1870" result="effect2_innerShadow_110_1870"/>
    </filter>
  </defs>
</svg>
