<svg xmlns="http://www.w3.org/2000/svg" fill="none" viewBox="0 0 201 201">
  <g clip-path="url(#crDtLKlQrta)">
    <path d="M201 100.5a100.5 100.5 0 11-201.001 0 100.5 100.5 0 01201.001 0z" fill="#F7931A"/>
    <path fill-rule="evenodd" clip-rule="evenodd" d="M71.428 45.892l23.097 6.185 5.162-19.241 11.548 3.134-4.961 18.446 9.42 2.53 4.97-18.647 11.749 3.143-5.061 18.748s19.186 4.249 23.699 19.853c4.514 15.605-9.922 23.801-14.38 24.111 0 0 16.811 9.219 11.037 27.355-5.775 18.135-23.499 21.379-42.146 17.222l-5.062 19.442-11.75-3.143 5.163-19.141-9.32-2.54-5.162 19.278-11.657-3.134 5.17-19.186-23.708-6.396 5.975-13.266s6.688 1.828 9.219 2.431c2.53.603 4.157-2.029 4.87-4.66.712-2.631 11.447-46.239 12.461-49.83 1.014-3.59.603-6.395-3.654-7.5-4.258-1.106-10.05-2.833-10.05-2.833l3.371-12.361zm23.298 57.751l-6.396 25.426s31.713 11.448 35.769-4.659c4.057-16.108-29.373-20.767-29.373-20.767zm2.942-12.06l6.276-23.298s27.154 4.86 23.81 17.825c-3.344 12.965-19.351 7.994-30.086 5.473z" fill="#fff"/>
  </g>
  <defs>
    <clipPath id="crDtLKlQrta">
      <path fill="#fff" d="M0 0h201v201H0z"/>
    </clipPath>
  </defs>
</svg>
