<svg xmlns="http://www.w3.org/2000/svg" fill="none" viewBox="0 0 150 150">
  <g clip-path="url(#SAO02vmdAa)" fill-rule="evenodd" clip-rule="evenodd">
    <path d="M74.707 0a74.997 74.997 0 0169.291 46.299 75.002 75.002 0 01-97.993 97.992A75.007 75.007 0 01-.293 75a75 75 0 0175-75z" fill="#fff"/>
    <path d="M74.707 16.105l19.732 29.482 19.732 29.488-39.464 19.882L35.243 75l19.732-29.488 19.732-29.407zm0 86.795L37.432 83.012l37.275 50.884 37.275-50.884L74.707 102.9z" fill="#343434"/>
    <path d="M74.707 16.105l19.731 29.407L114.17 75 74.707 60.102V16.105z" fill="#343434"/>
    <path d="M74.707 102.9l37.35-19.889-37.35 50.96V102.9z" fill="#313131"/>
    <path d="M74.707 60.102L114.17 75 74.707 94.882v-34.78z" fill="#151515"/>
    <path d="M74.707 16.105L54.975 45.512 35.243 75l39.464-14.898V16.105z" fill="#8C8C8C"/>
    <path d="M74.707 102.9L37.432 83.011l37.275 50.96V102.9z" fill="#8A8A8A"/>
    <path d="M74.707 60.102L35.243 75l39.464 19.882v-34.78z" fill="#353535"/>
  </g>
  <defs>
    <clipPath id="SAO02vmdAa">
      <path fill="#fff" d="M0 0h150v150H0z"/>
    </clipPath>
  </defs>
</svg>
