<svg xmlns="http://www.w3.org/2000/svg" fill="none" viewBox="0 0 17 17">
  <path d="M8.124 16.247A8.124 8.124 0 108.124 0a8.124 8.124 0 000 16.247z" fill="#F7931A"/>
  <path d="M11.774 7.118c.16-1.064-.652-1.636-1.76-2.018l.36-1.442-.877-.218-.35 1.404c-.231-.058-.468-.112-.704-.166l.353-1.413-.877-.219-.36 1.442c-.19-.044-.379-.087-.56-.132V4.35l-1.209-.3-.233.937s.651.15.637.159c.356.089.42.324.409.51l-.41 1.643a.78.78 0 01.092.029l-.093-.023-.574 2.301c-.043.108-.153.27-.402.208.009.013-.638-.159-.638-.159l-.435 1.005 1.142.284c.212.054.42.11.625.162l-.363 1.458.877.218.36-1.442c.239.065.471.125.699.182l-.359 1.436.878.218.363-1.455c1.497.283 2.622.169 3.095-1.185.382-1.09-.018-1.718-.806-2.128.574-.132 1.005-.51 1.12-1.289zM9.768 9.93c-.27 1.09-2.106.5-2.701.353L7.55 8.35c.595.149 2.503.443 2.22 1.58zm.272-2.827c-.247.991-1.775.487-2.27.364l.437-1.752c.495.123 2.09.353 1.833 1.388z" fill="#fff"/>
</svg>
