<svg xmlns="http://www.w3.org/2000/svg" fill="none" viewBox="0 0 21 23">
  <path d="M17.983 8.978H0v13.965h17.983V8.978z" fill="#699CFF"/>
  <path d="M19.781 21.847H2.518a.686.686 0 01-.509-.234.846.846 0 01-.21-.564V7.88c0-.212.075-.414.21-.564a.686.686 0 01.509-.234H19.78c.19 0 .373.084.508.234.135.15.211.352.211.564v13.168a.846.846 0 01-.21.564.686.686 0 01-.509.234zM2.518 7.88v13.168h17.264L19.78 7.88H2.518z" fill="#3F3D56"/>
  <path d="M17.803 7.382h-.72c0-1.746-.625-3.42-1.738-4.656C14.232 1.492 12.723.798 11.15.798c-1.574 0-3.083.694-4.196 1.928-1.113 1.235-1.738 2.91-1.738 4.656h-.72c0-1.958.701-3.836 1.95-5.22C7.691.778 9.384 0 11.148 0c1.765 0 3.457.778 4.705 2.162 1.248 1.384 1.949 3.262 1.949 5.22zm-4.855 5.486c0-.348-.081-.689-.236-.99a1.914 1.914 0 00-.649-.73 1.669 1.669 0 00-.89-.277 1.66 1.66 0 00-.895.25 1.897 1.897 0 00-.666.71 2.158 2.158 0 00-.26.983c-.009.347.065.69.214.997.148.306.366.563.631.747V16.7c0 .138.025.276.073.404.048.128.118.244.206.343a.953.953 0 00.31.229c.115.053.239.08.364.08a.907.907 0 00.673-.31c.178-.198.279-.466.279-.746v-2.142a1.92 1.92 0 00.62-.723c.148-.296.226-.629.226-.967z" fill="#3F3D56"/>
</svg>
