<svg xmlns="http://www.w3.org/2000/svg" fill="none" viewBox="0 0 273 567">
  <path d="M60.581.355H212.27c10.608 0 18.543 0 24.839.515 6.292.514 10.916 1.54 14.907 3.574a37.51 37.51 0 0116.391 16.391c2.034 3.991 3.06 8.615 3.574 14.907.514 6.296.515 14.23.515 24.84v445.227c0 10.609-.001 18.544-.515 24.84-.514 6.291-1.54 10.915-3.574 14.906a37.508 37.508 0 01-16.391 16.392c-3.991 2.033-8.615 3.059-14.907 3.573-6.296.515-14.231.515-24.839.515H60.581c-10.608 0-18.543 0-24.84-.515-6.291-.514-10.915-1.54-14.906-3.573a37.507 37.507 0 01-16.391-16.392c-2.034-3.991-3.06-8.615-3.574-14.906-.514-6.296-.515-14.231-.515-24.84V60.581c0-10.608 0-18.543.515-24.84.514-6.291 1.54-10.915 3.574-14.906A37.508 37.508 0 0120.835 4.444C24.826 2.41 29.45 1.384 35.742.87c6.296-.514 14.23-.515 24.84-.515z" fill="#2C3131" stroke="url(#8fcgxj8_Aqa)" stroke-width=".711"/>
  <defs>
    <linearGradient id="8fcgxj8_Aqa" x1="17.439" y1="7.239" x2="251.575" y2="552.114" gradientUnits="userSpaceOnUse">
      <stop stop-color="#fff" stop-opacity=".16"/>
      <stop offset="1" stop-color="#fff" stop-opacity=".05"/>
    </linearGradient>
  </defs>
</svg>
