<svg xmlns="http://www.w3.org/2000/svg" fill="none" viewBox="0 0 243 504">
  <path d="M53.866.315h134.872c9.433 0 16.488 0 22.086.457 5.595.457 9.706 1.37 13.255 3.178a33.351 33.351 0 0114.575 14.575c1.808 3.549 2.721 7.66 3.178 13.255.457 5.598.457 12.653.457 22.086v395.871c0 9.432 0 16.488-.457 22.086-.457 5.594-1.37 9.706-3.178 13.255a33.356 33.356 0 01-14.575 14.575c-3.549 1.808-7.66 2.72-13.255 3.177-5.598.458-12.653.458-22.086.458H53.866c-9.433 0-16.488 0-22.087-.458-5.594-.457-9.705-1.369-13.254-3.177A33.356 33.356 0 013.95 485.078c-1.809-3.549-2.72-7.661-3.178-13.255-.457-5.598-.457-12.654-.457-22.086V53.866c0-9.433 0-16.488.457-22.087.457-5.594 1.37-9.705 3.178-13.254A33.352 33.352 0 0118.525 3.95c3.549-1.81 7.66-2.72 13.255-3.178C37.377.315 44.432.315 53.865.315z" fill="#000" stroke="url(#YXqUARdiYGa)" stroke-width=".629"/>
  <defs>
    <linearGradient id="YXqUARdiYGa" x1="15.506" y1="6.436" x2="223.687" y2="490.909" gradientUnits="userSpaceOnUse">
      <stop stop-color="#fff" stop-opacity=".16"/>
      <stop offset="1" stop-color="#fff" stop-opacity=".05"/>
    </linearGradient>
  </defs>
</svg>
